# xmcd
#
# Track frame offsets: 
#        150
#        15562
#        27860
#        45210
#        61285
#        71115
#        101555
#        111205
#        133365
#        148080
#        162622
#        173125
#        187542
#        200947
#        213097
#        222387
#        239472
#        262297
#
# Disc length: 3740 seconds
#
# Revision: 1
# Processed by: cddbd v1.5.2PL0 Copyright (c) Steve Scherf et al.
# Submitted via: ExactAudioCopy v1.0b4
#
DISCID=140e9a12
DTITLE=The Smiths - Singles
DYEAR=1995
DGENRE=Blues
TTITLE0=Hand In Glove
TTITLE1=This Charming Man
TTITLE2=What Difference Does It Make?
TTITLE3=Heaven Knows I'm Miserable Now
TTITLE4=William, It Was Really Nothing
TTITLE5=How Soon Is Now?
TTITLE6=Shakespeare's Sister
TTITLE7=That Joke Isn't Funny Anymore
TTITLE8=The Boy With The Thorn In His Side
TTITLE9=Bigmouth Strikes Again
TTITLE10=Panic
TTITLE11=Ask
TTITLE12=Shoplifters Of The World Unite
TTITLE13=Sheila Take A Bow
TTITLE14=Girlfriend In A Coma
TTITLE15=I Started Something I Couldn't Finish
TTITLE16=Last Night I Dreamt That Somebody Loved Me
TTITLE17=There Is A Light That Never Goes Out
EXTD=
EXTT0=
EXTT1=
EXTT2=
EXTT3=
EXTT4=
EXTT5=
EXTT6=
EXTT7=
EXTT8=
EXTT9=
EXTT10=
EXTT11=
EXTT12=
EXTT13=
EXTT14=
EXTT15=
EXTT16=
EXTT17=
PLAYORDER=
